<mxfile host="app.diagrams.net" modified="2020-06-11T06:07:24.675Z" agent="5.0 (Windows NT 10.0; Win64; x64) AppleWebKit/537.36 (KHTML, like Gecko) Chrome/83.0.4103.97 Safari/537.36" etag="WGwsCThAzOe0pFXbZHbZ" version="13.2.1" type="github">
  <diagram id="IyPydjw5QlKbOZAZAvIa" name="Page-1">
    <mxGraphModel dx="2779" dy="2345" grid="1" gridSize="10" guides="1" tooltips="1" connect="1" arrows="1" fold="1" page="1" pageScale="1" pageWidth="827" pageHeight="1169" math="0" shadow="0">
      <root>
        <mxCell id="0" />
        <mxCell id="1" parent="0" />
        <mxCell id="8UruansU7Lyf3w-Pljux-15" value="Controller" style="swimlane;fontStyle=1;align=center;verticalAlign=top;childLayout=stackLayout;horizontal=1;startSize=26;horizontalStack=0;resizeParent=1;resizeParentMax=0;resizeLast=0;collapsible=1;marginBottom=0;labelBackgroundColor=#3399FF;" vertex="1" parent="1">
          <mxGeometry x="560" y="80" width="160" height="90" as="geometry" />
        </mxCell>
        <mxCell id="8UruansU7Lyf3w-Pljux-16" value="model: Model" style="text;strokeColor=none;fillColor=none;align=left;verticalAlign=top;spacingLeft=4;spacingRight=4;overflow=hidden;rotatable=0;points=[[0,0.5],[1,0.5]];portConstraint=eastwest;" vertex="1" parent="8UruansU7Lyf3w-Pljux-15">
          <mxGeometry y="26" width="160" height="26" as="geometry" />
        </mxCell>
        <mxCell id="8UruansU7Lyf3w-Pljux-17" value="" style="line;strokeWidth=1;fillColor=none;align=left;verticalAlign=middle;spacingTop=-1;spacingLeft=3;spacingRight=3;rotatable=0;labelPosition=right;points=[];portConstraint=eastwest;" vertex="1" parent="8UruansU7Lyf3w-Pljux-15">
          <mxGeometry y="52" width="160" height="8" as="geometry" />
        </mxCell>
        <mxCell id="8UruansU7Lyf3w-Pljux-28" value="view: View" style="text;strokeColor=none;fillColor=none;align=left;verticalAlign=top;spacingLeft=4;spacingRight=4;overflow=hidden;rotatable=0;points=[[0,0.5],[1,0.5]];portConstraint=eastwest;" vertex="1" parent="8UruansU7Lyf3w-Pljux-15">
          <mxGeometry y="60" width="160" height="30" as="geometry" />
        </mxCell>
        <mxCell id="8UruansU7Lyf3w-Pljux-20" value="View" style="swimlane;fontStyle=1;align=center;verticalAlign=top;childLayout=stackLayout;horizontal=1;startSize=26;horizontalStack=0;resizeParent=1;resizeParentMax=0;resizeLast=0;collapsible=1;marginBottom=0;labelBackgroundColor=#3399FF;" vertex="1" parent="1">
          <mxGeometry x="320" y="80" width="160" height="90" as="geometry" />
        </mxCell>
        <mxCell id="8UruansU7Lyf3w-Pljux-21" value="model: Model" style="text;strokeColor=none;fillColor=none;align=left;verticalAlign=top;spacingLeft=4;spacingRight=4;overflow=hidden;rotatable=0;points=[[0,0.5],[1,0.5]];portConstraint=eastwest;" vertex="1" parent="8UruansU7Lyf3w-Pljux-20">
          <mxGeometry y="26" width="160" height="26" as="geometry" />
        </mxCell>
        <mxCell id="8UruansU7Lyf3w-Pljux-22" value="" style="line;strokeWidth=1;fillColor=none;align=left;verticalAlign=middle;spacingTop=-1;spacingLeft=3;spacingRight=3;rotatable=0;labelPosition=right;points=[];portConstraint=eastwest;" vertex="1" parent="8UruansU7Lyf3w-Pljux-20">
          <mxGeometry y="52" width="160" height="8" as="geometry" />
        </mxCell>
        <mxCell id="8UruansU7Lyf3w-Pljux-23" value="render()" style="text;strokeColor=none;fillColor=none;align=left;verticalAlign=top;spacingLeft=4;spacingRight=4;overflow=hidden;rotatable=0;points=[[0,0.5],[1,0.5]];portConstraint=eastwest;" vertex="1" parent="8UruansU7Lyf3w-Pljux-20">
          <mxGeometry y="60" width="160" height="30" as="geometry" />
        </mxCell>
        <mxCell id="8UruansU7Lyf3w-Pljux-24" value="Model" style="swimlane;fontStyle=1;align=center;verticalAlign=top;childLayout=stackLayout;horizontal=1;startSize=26;horizontalStack=0;resizeParent=1;resizeParentMax=0;resizeLast=0;collapsible=1;marginBottom=0;labelBackgroundColor=#3399FF;" vertex="1" parent="1">
          <mxGeometry x="80" y="80" width="160" height="90" as="geometry" />
        </mxCell>
        <mxCell id="8UruansU7Lyf3w-Pljux-30" value="" style="endArrow=block;endFill=1;html=1;edgeStyle=orthogonalEdgeStyle;align=left;verticalAlign=top;exitX=0.5;exitY=0;exitDx=0;exitDy=0;entryX=0.5;entryY=1;entryDx=0;entryDy=0;" edge="1" parent="1" source="8UruansU7Lyf3w-Pljux-29" target="8UruansU7Lyf3w-Pljux-24">
          <mxGeometry x="-1" relative="1" as="geometry">
            <mxPoint x="370" y="310" as="sourcePoint" />
            <mxPoint x="530" y="310" as="targetPoint" />
          </mxGeometry>
        </mxCell>
        <mxCell id="8UruansU7Lyf3w-Pljux-35" value="" style="endArrow=block;endFill=1;html=1;edgeStyle=orthogonalEdgeStyle;align=left;verticalAlign=top;exitX=0.5;exitY=0;exitDx=0;exitDy=0;entryX=0.513;entryY=1.1;entryDx=0;entryDy=0;entryPerimeter=0;" edge="1" parent="1" source="8UruansU7Lyf3w-Pljux-34" target="8UruansU7Lyf3w-Pljux-23">
          <mxGeometry x="-1" relative="1" as="geometry">
            <mxPoint x="610" y="310" as="sourcePoint" />
            <mxPoint x="400" y="170" as="targetPoint" />
            <Array as="points">
              <mxPoint x="402" y="490" />
            </Array>
          </mxGeometry>
        </mxCell>
        <mxCell id="8UruansU7Lyf3w-Pljux-37" value="" style="endArrow=block;endFill=1;html=1;edgeStyle=orthogonalEdgeStyle;align=left;verticalAlign=top;exitX=0.5;exitY=0;exitDx=0;exitDy=0;" edge="1" parent="1" source="8UruansU7Lyf3w-Pljux-39" target="8UruansU7Lyf3w-Pljux-28">
          <mxGeometry x="-1" relative="1" as="geometry">
            <mxPoint x="850" y="310" as="sourcePoint" />
            <mxPoint x="660" y="250" as="targetPoint" />
            <Array as="points">
              <mxPoint x="640" y="360" />
              <mxPoint x="640" y="360" />
            </Array>
          </mxGeometry>
        </mxCell>
        <mxCell id="8UruansU7Lyf3w-Pljux-39" value="CharacterController" style="swimlane;fontStyle=1;align=center;verticalAlign=top;childLayout=stackLayout;horizontal=1;startSize=26;horizontalStack=0;resizeParent=1;resizeParentMax=0;resizeLast=0;collapsible=1;marginBottom=0;labelBackgroundColor=#3399FF;" vertex="1" parent="1">
          <mxGeometry x="560" y="490" width="160" height="90" as="geometry" />
        </mxCell>
        <mxCell id="8UruansU7Lyf3w-Pljux-34" value="CharacterView" style="swimlane;fontStyle=1;align=center;verticalAlign=top;childLayout=stackLayout;horizontal=1;startSize=26;horizontalStack=0;resizeParent=1;resizeParentMax=0;resizeLast=0;collapsible=1;marginBottom=0;labelBackgroundColor=#3399FF;" vertex="1" parent="1">
          <mxGeometry x="320" y="490" width="160" height="90" as="geometry" />
        </mxCell>
        <mxCell id="8UruansU7Lyf3w-Pljux-29" value="CharacterModel" style="swimlane;fontStyle=1;align=center;verticalAlign=top;childLayout=stackLayout;horizontal=1;startSize=26;horizontalStack=0;resizeParent=1;resizeParentMax=0;resizeLast=0;collapsible=1;marginBottom=0;labelBackgroundColor=#3399FF;" vertex="1" parent="1">
          <mxGeometry x="80" y="490" width="160" height="90" as="geometry" />
        </mxCell>
        <mxCell id="8UruansU7Lyf3w-Pljux-41" value="Character" style="swimlane;fontStyle=1;align=center;verticalAlign=top;childLayout=stackLayout;horizontal=1;startSize=26;horizontalStack=0;resizeParent=1;resizeParentMax=0;resizeLast=0;collapsible=1;marginBottom=0;labelBackgroundColor=#3399FF;" vertex="1" parent="1">
          <mxGeometry x="-480" y="240" width="160" height="130" as="geometry" />
        </mxCell>
        <mxCell id="8UruansU7Lyf3w-Pljux-49" value="model: CharacterModel" style="text;strokeColor=none;fillColor=none;align=left;verticalAlign=top;spacingLeft=4;spacingRight=4;overflow=hidden;rotatable=0;points=[[0,0.5],[1,0.5]];portConstraint=eastwest;labelBackgroundColor=none;" vertex="1" parent="8UruansU7Lyf3w-Pljux-41">
          <mxGeometry y="26" width="160" height="26" as="geometry" />
        </mxCell>
        <mxCell id="8UruansU7Lyf3w-Pljux-50" value="view: CharacterView" style="text;strokeColor=none;fillColor=none;align=left;verticalAlign=top;spacingLeft=4;spacingRight=4;overflow=hidden;rotatable=0;points=[[0,0.5],[1,0.5]];portConstraint=eastwest;labelBackgroundColor=none;" vertex="1" parent="8UruansU7Lyf3w-Pljux-41">
          <mxGeometry y="52" width="160" height="26" as="geometry" />
        </mxCell>
        <mxCell id="8UruansU7Lyf3w-Pljux-51" value="controller: CharacterController" style="text;strokeColor=none;fillColor=none;align=left;verticalAlign=top;spacingLeft=4;spacingRight=4;overflow=hidden;rotatable=0;points=[[0,0.5],[1,0.5]];portConstraint=eastwest;labelBackgroundColor=none;" vertex="1" parent="8UruansU7Lyf3w-Pljux-41">
          <mxGeometry y="78" width="160" height="26" as="geometry" />
        </mxCell>
        <mxCell id="8UruansU7Lyf3w-Pljux-48" value="spawn(): void" style="text;strokeColor=none;fillColor=none;align=left;verticalAlign=top;spacingLeft=4;spacingRight=4;overflow=hidden;rotatable=0;points=[[0,0.5],[1,0.5]];portConstraint=eastwest;labelBackgroundColor=none;" vertex="1" parent="8UruansU7Lyf3w-Pljux-41">
          <mxGeometry y="104" width="160" height="26" as="geometry" />
        </mxCell>
        <mxCell id="8UruansU7Lyf3w-Pljux-45" value="Digger" style="swimlane;fontStyle=1;align=center;verticalAlign=top;childLayout=stackLayout;horizontal=1;startSize=26;horizontalStack=0;resizeParent=1;resizeParentMax=0;resizeLast=0;collapsible=1;marginBottom=0;labelBackgroundColor=#3399FF;" vertex="1" parent="1">
          <mxGeometry x="-360" y="400" width="160" height="90" as="geometry" />
        </mxCell>
        <mxCell id="8UruansU7Lyf3w-Pljux-46" value="Enemy" style="swimlane;fontStyle=1;align=center;verticalAlign=top;childLayout=stackLayout;horizontal=1;startSize=26;horizontalStack=0;resizeParent=1;resizeParentMax=0;resizeLast=0;collapsible=1;marginBottom=0;labelBackgroundColor=#3399FF;" vertex="1" parent="1">
          <mxGeometry x="-600" y="400" width="160" height="90" as="geometry" />
        </mxCell>
        <mxCell id="8UruansU7Lyf3w-Pljux-52" value="" style="endArrow=block;endFill=1;html=1;edgeStyle=orthogonalEdgeStyle;align=left;verticalAlign=top;exitX=0.5;exitY=0;exitDx=0;exitDy=0;entryX=0.5;entryY=1;entryDx=0;entryDy=0;" edge="1" source="8UruansU7Lyf3w-Pljux-53" parent="1">
          <mxGeometry x="-1" relative="1" as="geometry">
            <mxPoint x="370" y="720" as="sourcePoint" />
            <mxPoint x="160" y="580" as="targetPoint" />
          </mxGeometry>
        </mxCell>
        <mxCell id="8UruansU7Lyf3w-Pljux-54" value="" style="endArrow=block;endFill=1;html=1;edgeStyle=orthogonalEdgeStyle;align=left;verticalAlign=top;exitX=0.5;exitY=0;exitDx=0;exitDy=0;entryX=0.513;entryY=1.1;entryDx=0;entryDy=0;entryPerimeter=0;" edge="1" source="8UruansU7Lyf3w-Pljux-55" parent="1">
          <mxGeometry x="-1" relative="1" as="geometry">
            <mxPoint x="610" y="720" as="sourcePoint" />
            <mxPoint x="402.0799999999999" y="583" as="targetPoint" />
            <Array as="points">
              <mxPoint x="402" y="900" />
            </Array>
          </mxGeometry>
        </mxCell>
        <mxCell id="8UruansU7Lyf3w-Pljux-56" value="" style="endArrow=block;endFill=1;html=1;edgeStyle=orthogonalEdgeStyle;align=left;verticalAlign=top;exitX=0.5;exitY=0;exitDx=0;exitDy=0;" edge="1" source="8UruansU7Lyf3w-Pljux-57" parent="1">
          <mxGeometry x="-1" relative="1" as="geometry">
            <mxPoint x="850" y="720" as="sourcePoint" />
            <mxPoint x="640.0000000000005" y="580" as="targetPoint" />
            <Array as="points">
              <mxPoint x="640" y="770" />
              <mxPoint x="640" y="770" />
            </Array>
          </mxGeometry>
        </mxCell>
        <mxCell id="8UruansU7Lyf3w-Pljux-64" value="BudgetPanelView" style="swimlane;fontStyle=1;align=center;verticalAlign=top;childLayout=stackLayout;horizontal=1;startSize=26;horizontalStack=0;resizeParent=1;resizeParentMax=0;resizeLast=0;collapsible=1;marginBottom=0;labelBackgroundColor=#3399FF;" vertex="1" parent="1">
          <mxGeometry x="320" y="-90" width="160" height="90" as="geometry" />
        </mxCell>
        <mxCell id="8UruansU7Lyf3w-Pljux-53" value="DiggerModel" style="swimlane;fontStyle=1;align=center;verticalAlign=top;childLayout=stackLayout;horizontal=1;startSize=26;horizontalStack=0;resizeParent=1;resizeParentMax=0;resizeLast=0;collapsible=1;marginBottom=0;labelBackgroundColor=#3399FF;" vertex="1" parent="1">
          <mxGeometry x="80" y="900" width="160" height="90" as="geometry" />
        </mxCell>
        <mxCell id="8UruansU7Lyf3w-Pljux-55" value="DiggerView" style="swimlane;fontStyle=1;align=center;verticalAlign=top;childLayout=stackLayout;horizontal=1;startSize=26;horizontalStack=0;resizeParent=1;resizeParentMax=0;resizeLast=0;collapsible=1;marginBottom=0;labelBackgroundColor=#3399FF;" vertex="1" parent="1">
          <mxGeometry x="320" y="900" width="160" height="90" as="geometry" />
        </mxCell>
        <mxCell id="8UruansU7Lyf3w-Pljux-57" value="DiggerController" style="swimlane;fontStyle=1;align=center;verticalAlign=top;childLayout=stackLayout;horizontal=1;startSize=26;horizontalStack=0;resizeParent=1;resizeParentMax=0;resizeLast=0;collapsible=1;marginBottom=0;labelBackgroundColor=#3399FF;" vertex="1" parent="1">
          <mxGeometry x="560" y="900" width="160" height="90" as="geometry" />
        </mxCell>
        <mxCell id="8UruansU7Lyf3w-Pljux-58" value="BudgetPanelModel" style="swimlane;fontStyle=1;align=center;verticalAlign=top;childLayout=stackLayout;horizontal=1;startSize=26;horizontalStack=0;resizeParent=1;resizeParentMax=0;resizeLast=0;collapsible=1;marginBottom=0;labelBackgroundColor=#3399FF;" vertex="1" parent="1">
          <mxGeometry x="-200" y="80" width="160" height="90" as="geometry" />
        </mxCell>
        <mxCell id="8UruansU7Lyf3w-Pljux-59" value="name" style="endArrow=block;endFill=1;html=1;edgeStyle=orthogonalEdgeStyle;align=left;verticalAlign=top;" edge="1" parent="1">
          <mxGeometry x="-1" relative="1" as="geometry">
            <mxPoint x="40" y="510" as="sourcePoint" />
            <mxPoint x="200" y="510" as="targetPoint" />
          </mxGeometry>
        </mxCell>
        <mxCell id="8UruansU7Lyf3w-Pljux-60" value="1" style="resizable=0;html=1;align=left;verticalAlign=bottom;labelBackgroundColor=#ffffff;fontSize=10;" connectable="0" vertex="1" parent="8UruansU7Lyf3w-Pljux-59">
          <mxGeometry x="-1" relative="1" as="geometry" />
        </mxCell>
        <mxCell id="8UruansU7Lyf3w-Pljux-62" value="" style="endArrow=block;endFill=1;html=1;edgeStyle=orthogonalEdgeStyle;align=left;verticalAlign=top;" edge="1" parent="1">
          <mxGeometry x="-1" relative="1" as="geometry">
            <mxPoint x="-40" y="130" as="sourcePoint" />
            <mxPoint x="80" y="130" as="targetPoint" />
          </mxGeometry>
        </mxCell>
        <mxCell id="8UruansU7Lyf3w-Pljux-65" value="" style="endArrow=block;endFill=1;html=1;edgeStyle=orthogonalEdgeStyle;align=left;verticalAlign=top;entryX=0.5;entryY=0;entryDx=0;entryDy=0;exitX=0.5;exitY=1;exitDx=0;exitDy=0;" edge="1" parent="1" source="8UruansU7Lyf3w-Pljux-64" target="8UruansU7Lyf3w-Pljux-20">
          <mxGeometry x="-1" relative="1" as="geometry">
            <mxPoint x="340" y="30" as="sourcePoint" />
            <mxPoint x="460" y="30" as="targetPoint" />
            <Array as="points" />
          </mxGeometry>
        </mxCell>
        <mxCell id="8UruansU7Lyf3w-Pljux-68" value="" style="endArrow=block;endFill=1;html=1;edgeStyle=orthogonalEdgeStyle;align=left;verticalAlign=top;entryX=1;entryY=0.923;entryDx=0;entryDy=0;entryPerimeter=0;" edge="1" parent="1" target="8UruansU7Lyf3w-Pljux-16">
          <mxGeometry x="-1" relative="1" as="geometry">
            <mxPoint x="840" y="130" as="sourcePoint" />
            <mxPoint x="920" y="250" as="targetPoint" />
            <Array as="points" />
          </mxGeometry>
        </mxCell>
        <mxCell id="8UruansU7Lyf3w-Pljux-67" value="BudgetPanelView" style="swimlane;fontStyle=1;align=center;verticalAlign=top;childLayout=stackLayout;horizontal=1;startSize=26;horizontalStack=0;resizeParent=1;resizeParentMax=0;resizeLast=0;collapsible=1;marginBottom=0;labelBackgroundColor=#3399FF;" vertex="1" parent="1">
          <mxGeometry x="840" y="80" width="160" height="90" as="geometry" />
        </mxCell>
      </root>
    </mxGraphModel>
  </diagram>
</mxfile>
